<?xml version="1.0" encoding="UTF-8"?>
<svg width="110px" height="25px" viewBox="0 0 110 25" version="1.1" xmlns="http://www.w3.org/2000/svg" xmlns:xlink="http://www.w3.org/1999/xlink">
    <!-- Generator: sketchtool 45.2 (43514) - http://www.bohemiancoding.com/sketch -->
    <title>5CC88AE4-914A-4ADE-B0BB-5C33356D2B54</title>
    <desc>Created with sketchtool.</desc>
    <defs>
        <path d="M109.267557,3.86634901 L109.267557,3.93951411 C109.26642,4.03473995 109.260844,4.13112484 109.250679,4.2285488 C109.066581,5.99635678 107.579219,6.72666554 105.815527,6.54271696 C105.77324,6.53796283 103.474754,6.28197077 100.586427,6.28197077 C100.586427,6.28197077 99.0542253,6.27026828 97.0794599,6.50760948 C96.816255,6.53869423 96.6175755,6.76287013 96.6175755,7.02873616 L96.6175755,9.83440907 L104.394148,9.83440907 C105.916508,9.83440907 107.244927,11.0639023 107.259873,12.5874207 C107.244927,14.1102078 105.916508,15.339701 104.394148,15.339701 L96.6175755,15.339701 L96.6175755,18.1453739 C96.6175755,18.4108743 96.816255,18.6350502 97.0794599,18.6668663 C99.0542253,18.9038418 100.586427,18.8921393 100.586427,18.8921393 C103.474754,18.8921393 105.77324,18.6357816 105.815527,18.6310274 C107.579219,18.4474446 109.066581,19.178119 109.250679,20.9455613 C109.260844,21.0429852 109.26642,21.1393701 109.267557,21.234596 L109.267557,21.3077611 C109.25341,22.4884558 108.55416,23.48389 107.462563,24.0609846 C106.073629,24.7949504 102.042074,24.8713823 100.676471,24.8713823 C97.8639707,24.8713823 96.3685881,24.6921878 95.0383464,24.4508239 C93.5972817,24.1838608 92.6319543,23.568017 91.991076,22.7682247 C90.9805444,21.5058182 90.7727511,19.7884772 90.7723866,18.263496 L90.7723866,12.5874207 L90.7727511,6.91134552 C90.7727511,5.38599859 90.9805444,3.66792621 91.991076,2.40661679 C92.6319543,1.60609307 93.5972817,0.990615032 95.0383464,0.724017593 C96.3685881,0.481922252 97.8639707,0.302727814 100.676471,0.302727814 C102.042074,0.302727814 106.073629,0.37952543 107.462563,1.11312551 C108.55416,1.69022005 109.25341,2.68565427 109.267557,3.86634901 Z M6.97310552,7.96482596 C7.05913924,8.0942848 7.17834697,8.22191512 7.33729061,8.34917974 C9.54828418,10.2270643 19.3561277,9.51065226 19.3561277,17.3451062 C19.3561277,22.5516189 14.900602,25 9.36673846,25 C5.51709426,25 0,23.4830642 0,20.173087 C0,18.6557855 0.975170288,17.3469347 2.55622208,17.3469347 C4.06764489,17.3469347 6.20609308,19.1827634 9.98355645,19.1827634 C12.0603958,19.1827634 13.0424925,18.7322174 13.0424925,17.793458 C13.0424925,17.3451062 12.8707896,17.0898456 12.5955546,16.8137398 C10.3615944,14.6762062 0.515837741,15.010093 0.515837741,7.38043267 C0.515837741,3.00150575 4.34871266,0.309932162 9.81367632,0.309932162 C11.7042308,0.309932162 15.5546041,0.712936794 17.0671205,2.23023826 C17.651129,2.81646007 17.9391233,3.54055187 17.9391233,4.47126584 C17.9391233,5.91944946 16.9552038,6.99937022 15.3737874,6.99937022 C14.2739412,6.99937022 12.2878747,6.00465824 9.64160889,6.00465824 C7.99165722,6.00465824 6.75182389,6.25589615 6.75182389,7.29924662 C6.75182389,7.51208573 6.80832908,7.71724508 6.97310552,7.96482596 Z M52.6044767,0.265243264 C59.3880164,0.265243264 64.8872477,5.78187201 64.8872477,12.5872379 C64.8872477,19.3922381 59.3880164,24.9092325 52.6044767,24.9092325 C45.8209369,24.9092325 40.3217056,19.3922381 40.3217056,12.5872379 C40.3217056,5.78187201 45.8209369,0.265243264 52.6044767,0.265243264 Z M52.6044767,18.8206444 C56.036347,18.8206444 58.8182253,16.0299653 58.8182253,12.5872379 C58.8182253,9.14451048 56.036347,6.3534657 52.6044767,6.3534657 C49.1726063,6.3534657 46.3903635,9.14451048 46.3903635,12.5872379 C46.3903635,16.0299653 49.1726063,18.8206444 52.6044767,18.8206444 Z M30.2665152,0.548187623 C34.6874087,0.548187623 37.6537491,0.982277005 37.8323784,1.01263035 C39.8126121,1.34688283 41.0032312,2.72229156 40.8249664,4.43231848 C40.6470662,6.14161399 39.2078242,7.07196225 37.5031901,6.89276781 C37.4754843,6.88984219 35.51603,6.75965194 33.3870601,6.67334605 L33.3870601,22.0145841 C33.3870601,24.0778801 31.748774,24.826474 30.1801169,24.826474 C28.646092,24.826474 27.1470639,24.0778801 27.1470639,22.0145841 L27.1470639,6.67334605 C25.0166358,6.75965194 23.0579106,6.88984219 23.0305694,6.89276781 C21.3248416,7.07049944 19.8866933,6.14197969 19.7084285,4.43231848 C19.5301637,2.72265726 20.7995256,1.31652949 22.7010165,1.01263035 C22.8800104,0.983739817 26.0012844,0.548187623 30.2665152,0.548187623 Z M81.6015206,3.93880237 C81.8804011,2.08578561 82.5427878,0.617122626 84.7738316,0.617122626 C85.9276312,0.617122626 87.9107812,1.63121686 87.9107812,3.97427555 C87.9107812,9.0794885 84.3203318,19.4051108 80.2071182,23.5317027 C79.3544366,24.3867162 78.2655269,24.8431134 77.1620351,24.828851 C76.0585433,24.8431134 74.9696336,24.3867162 74.1169519,23.5317027 C70.0033738,19.4051108 66.4132889,9.0794885 66.4132889,3.97427555 C66.4132889,1.63121686 68.3348301,0.617122626 69.5502386,0.617122626 C71.7812824,0.617122626 72.4440336,2.08578561 72.7225496,3.93880237 C73.4545652,8.7298765 74.9885901,13.2338738 77.1150082,17.779927 L77.209062,17.779927 C79.33548,13.2338738 80.8695049,8.7298765 81.6015206,3.93880237 Z" id="path-1"></path>
    </defs>
    <g id="Symbols" stroke="none" stroke-width="1" fill="none" fill-rule="evenodd">
        <g id="STOVE_LOGO">
            <mask id="mask-2" fill="white">
                <use xlink:href="#path-1"></use>
            </mask>
            <use fill="#FF5000" xlink:href="#path-1"></use>
        </g>
    </g>
</svg>